<svg id="visual" viewBox="0 0 900 600" width="900" height="600" xmlns="http://www.w3.org/2000/svg" xmlns:xlink="http://www.w3.org/1999/xlink" version="1.1"><rect x="0" y="0" width="900" height="600" fill="#001220"></rect><g fill="none" stroke="#A7233A" stroke-width="2"><circle r="73" cx="671" cy="544"></circle><circle r="31" cx="282" cy="252"></circle><circle r="45" cx="180" cy="79"></circle><circle r="48" cx="754" cy="195"></circle><circle r="38" cx="501" cy="233"></circle><circle r="44" cx="495" cy="557"></circle><circle r="44" cx="425" cy="75"></circle><circle r="33" cx="854" cy="412"></circle><circle r="62" cx="400" cy="441"></circle><circle r="41" cx="857" cy="599"></circle><circle r="49" cx="231" cy="533"></circle><circle r="44" cx="20" cy="4"></circle><circle r="56" cx="22" cy="488"></circle><circle r="52" cx="868" cy="69"></circle><circle r="42" cx="14" cy="333"></circle><circle r="58" cx="649" cy="66"></circle><circle r="43" cx="663" cy="356"></circle><circle r="49" cx="97" cy="208"></circle><circle r="31" cx="891" cy="263"></circle></g></svg>